<mxfile host="app.diagrams.net" modified="2022-11-20T11:02:19.945Z" agent="5.0 (Windows NT 10.0; Win64; x64) AppleWebKit/537.36 (KHTML, like Gecko) Chrome/107.0.0.0 Safari/537.36" etag="WUi3ai4VnyWQ8G6qcHu7" version="20.5.3" type="github">
  <diagram name="Page-1" id="bfe91b75-5d2c-26a0-9c1d-138518896778">
    <mxGraphModel dx="1673" dy="925" grid="1" gridSize="10" guides="1" tooltips="1" connect="1" arrows="1" fold="1" page="1" pageScale="1" pageWidth="1100" pageHeight="850" background="none" math="0" shadow="0">
      <root>
        <mxCell id="0" />
        <mxCell id="1" parent="0" />
        <mxCell id="K7tFfHR_YtRkHMma5AwN-2" value="" style="rounded=0;whiteSpace=wrap;html=1;" vertex="1" parent="1">
          <mxGeometry x="730" y="240" width="130" height="310" as="geometry" />
        </mxCell>
        <mxCell id="K7tFfHR_YtRkHMma5AwN-4" value="&lt;b&gt;&lt;font style=&quot;font-size: 18px;&quot;&gt;Create&lt;/font&gt;&lt;/b&gt;" style="rounded=1;whiteSpace=wrap;html=1;" vertex="1" parent="1">
          <mxGeometry x="737.5" y="270" width="115" height="40" as="geometry" />
        </mxCell>
        <mxCell id="K7tFfHR_YtRkHMma5AwN-6" value="&lt;span style=&quot;font-size: 18px;&quot;&gt;&lt;b&gt;Read&lt;/b&gt;&lt;/span&gt;" style="rounded=1;whiteSpace=wrap;html=1;" vertex="1" parent="1">
          <mxGeometry x="737.5" y="340" width="115" height="40" as="geometry" />
        </mxCell>
        <mxCell id="K7tFfHR_YtRkHMma5AwN-7" value="&lt;span style=&quot;font-size: 18px;&quot;&gt;&lt;b&gt;Delete&lt;/b&gt;&lt;/span&gt;" style="rounded=1;whiteSpace=wrap;html=1;" vertex="1" parent="1">
          <mxGeometry x="737.5" y="480" width="115" height="40" as="geometry" />
        </mxCell>
        <mxCell id="K7tFfHR_YtRkHMma5AwN-8" value="&lt;b&gt;&lt;font style=&quot;font-size: 18px;&quot;&gt;Update&lt;/font&gt;&lt;/b&gt;" style="rounded=1;whiteSpace=wrap;html=1;" vertex="1" parent="1">
          <mxGeometry x="737.5" y="410" width="115" height="40" as="geometry" />
        </mxCell>
        <mxCell id="K7tFfHR_YtRkHMma5AwN-9" value="Developer&lt;br&gt;" style="shape=umlActor;verticalLabelPosition=bottom;verticalAlign=top;html=1;outlineConnect=0;fontSize=18;" vertex="1" parent="1">
          <mxGeometry x="1000" y="365" width="30" height="60" as="geometry" />
        </mxCell>
        <mxCell id="K7tFfHR_YtRkHMma5AwN-11" value="" style="whiteSpace=wrap;html=1;aspect=fixed;fontSize=18;" vertex="1" parent="1">
          <mxGeometry x="340" y="240" width="291.25" height="291.25" as="geometry" />
        </mxCell>
        <mxCell id="K7tFfHR_YtRkHMma5AwN-12" value="" style="shape=cylinder3;whiteSpace=wrap;html=1;boundedLbl=1;backgroundOutline=1;size=15;fontSize=18;" vertex="1" parent="1">
          <mxGeometry x="210" y="590" width="460" height="190" as="geometry" />
        </mxCell>
        <mxCell id="K7tFfHR_YtRkHMma5AwN-13" value="" style="endArrow=classic;startArrow=classic;html=1;rounded=0;fontSize=18;exitX=0.592;exitY=0.379;exitDx=0;exitDy=0;exitPerimeter=0;" edge="1" parent="1" source="K7tFfHR_YtRkHMma5AwN-12" target="K7tFfHR_YtRkHMma5AwN-11">
          <mxGeometry width="50" height="50" relative="1" as="geometry">
            <mxPoint x="470" y="430" as="sourcePoint" />
            <mxPoint x="520" y="380" as="targetPoint" />
          </mxGeometry>
        </mxCell>
        <mxCell id="K7tFfHR_YtRkHMma5AwN-14" value="" style="endArrow=classic;startArrow=classic;html=1;rounded=0;fontSize=18;" edge="1" parent="1" source="K7tFfHR_YtRkHMma5AwN-2" target="K7tFfHR_YtRkHMma5AwN-9">
          <mxGeometry width="50" height="50" relative="1" as="geometry">
            <mxPoint x="470" y="430" as="sourcePoint" />
            <mxPoint x="520" y="380" as="targetPoint" />
          </mxGeometry>
        </mxCell>
        <mxCell id="K7tFfHR_YtRkHMma5AwN-15" value="VM1" style="shape=cylinder3;whiteSpace=wrap;html=1;boundedLbl=1;backgroundOutline=1;size=15;fontSize=18;" vertex="1" parent="1">
          <mxGeometry x="240" y="630" width="80" height="60" as="geometry" />
        </mxCell>
        <mxCell id="K7tFfHR_YtRkHMma5AwN-16" value="" style="shape=cylinder3;whiteSpace=wrap;html=1;boundedLbl=1;backgroundOutline=1;size=15;fontSize=18;" vertex="1" parent="1">
          <mxGeometry x="350" y="630" width="80" height="60" as="geometry" />
        </mxCell>
        <mxCell id="K7tFfHR_YtRkHMma5AwN-17" value="" style="shape=cylinder3;whiteSpace=wrap;html=1;boundedLbl=1;backgroundOutline=1;size=15;fontSize=18;" vertex="1" parent="1">
          <mxGeometry x="460" y="630" width="80" height="60" as="geometry" />
        </mxCell>
        <mxCell id="K7tFfHR_YtRkHMma5AwN-18" value="" style="shape=cylinder3;whiteSpace=wrap;html=1;boundedLbl=1;backgroundOutline=1;size=15;fontSize=18;" vertex="1" parent="1">
          <mxGeometry x="560" y="630" width="80" height="60" as="geometry" />
        </mxCell>
        <mxCell id="K7tFfHR_YtRkHMma5AwN-19" value="" style="shape=cylinder3;whiteSpace=wrap;html=1;boundedLbl=1;backgroundOutline=1;size=15;fontSize=18;" vertex="1" parent="1">
          <mxGeometry x="240" y="700" width="80" height="60" as="geometry" />
        </mxCell>
        <mxCell id="K7tFfHR_YtRkHMma5AwN-20" value="" style="shape=cylinder3;whiteSpace=wrap;html=1;boundedLbl=1;backgroundOutline=1;size=15;fontSize=18;" vertex="1" parent="1">
          <mxGeometry x="350" y="700" width="80" height="60" as="geometry" />
        </mxCell>
        <mxCell id="K7tFfHR_YtRkHMma5AwN-21" value="" style="shape=cylinder3;whiteSpace=wrap;html=1;boundedLbl=1;backgroundOutline=1;size=15;fontSize=18;" vertex="1" parent="1">
          <mxGeometry x="460" y="700" width="80" height="60" as="geometry" />
        </mxCell>
        <mxCell id="K7tFfHR_YtRkHMma5AwN-22" value="" style="shape=cylinder3;whiteSpace=wrap;html=1;boundedLbl=1;backgroundOutline=1;size=15;fontSize=18;" vertex="1" parent="1">
          <mxGeometry x="560" y="700" width="80" height="60" as="geometry" />
        </mxCell>
        <mxCell id="K7tFfHR_YtRkHMma5AwN-23" value="Resources" style="text;strokeColor=none;fillColor=none;html=1;fontSize=24;fontStyle=1;verticalAlign=middle;align=center;" vertex="1" parent="1">
          <mxGeometry x="390" y="790" width="100" height="40" as="geometry" />
        </mxCell>
        <mxCell id="K7tFfHR_YtRkHMma5AwN-24" value="" style="endArrow=classic;startArrow=classic;html=1;rounded=0;fontSize=18;" edge="1" parent="1" source="K7tFfHR_YtRkHMma5AwN-28">
          <mxGeometry width="50" height="50" relative="1" as="geometry">
            <mxPoint x="470" y="430" as="sourcePoint" />
            <mxPoint x="730" y="311" as="targetPoint" />
          </mxGeometry>
        </mxCell>
        <mxCell id="K7tFfHR_YtRkHMma5AwN-28" value="" style="rounded=0;whiteSpace=wrap;html=1;fontSize=18;" vertex="1" parent="1">
          <mxGeometry x="352.5" y="260.62" width="267.5" height="100" as="geometry" />
        </mxCell>
        <mxCell id="K7tFfHR_YtRkHMma5AwN-25" value="Authorization" style="rounded=1;whiteSpace=wrap;html=1;fontSize=18;" vertex="1" parent="1">
          <mxGeometry x="360" y="290.62" width="110" height="50" as="geometry" />
        </mxCell>
        <mxCell id="K7tFfHR_YtRkHMma5AwN-26" value="Request Validation" style="rounded=1;whiteSpace=wrap;html=1;fontSize=18;" vertex="1" parent="1">
          <mxGeometry x="470" y="290.62" width="147.5" height="50" as="geometry" />
        </mxCell>
        <mxCell id="K7tFfHR_YtRkHMma5AwN-30" value="" style="rounded=0;whiteSpace=wrap;html=1;fontSize=18;" vertex="1" parent="1">
          <mxGeometry x="352.5" y="400" width="267.5" height="100" as="geometry" />
        </mxCell>
        <mxCell id="K7tFfHR_YtRkHMma5AwN-31" value="DNS" style="rounded=1;whiteSpace=wrap;html=1;fontSize=18;" vertex="1" parent="1">
          <mxGeometry x="431.25" y="430" width="110" height="50" as="geometry" />
        </mxCell>
        <mxCell id="K7tFfHR_YtRkHMma5AwN-33" value="User&lt;br&gt;" style="shape=umlActor;verticalLabelPosition=bottom;verticalAlign=top;html=1;outlineConnect=0;fontSize=18;" vertex="1" parent="1">
          <mxGeometry x="110" y="420" width="30" height="60" as="geometry" />
        </mxCell>
        <mxCell id="K7tFfHR_YtRkHMma5AwN-36" style="edgeStyle=none;rounded=0;orthogonalLoop=1;jettySize=auto;html=1;exitX=0.5;exitY=0.5;exitDx=0;exitDy=0;exitPerimeter=0;fontSize=18;" edge="1" parent="1" source="K7tFfHR_YtRkHMma5AwN-33" target="K7tFfHR_YtRkHMma5AwN-30">
          <mxGeometry relative="1" as="geometry" />
        </mxCell>
      </root>
    </mxGraphModel>
  </diagram>
</mxfile>
